<svg width="20" height="21" viewBox="0 0 20 21" fill="none" xmlns="http://www.w3.org/2000/svg">
<path d="M2.5 6.52563H5M5 6.52563C5 7.90635 6.11929 9.02563 7.5 9.02563C8.88071 9.02563 10 7.90635 10 6.52563C10 5.14492 8.88071 4.02563 7.5 4.02563C6.11929 4.02563 5 5.14492 5 6.52563ZM2.5 14.859H7.5M15 14.859H17.5M15 14.859C15 16.2397 13.8807 17.359 12.5 17.359C11.1193 17.359 10 16.2397 10 14.859C10 13.4783 11.1193 12.359 12.5 12.359C13.8807 12.359 15 13.4783 15 14.859ZM12.5 6.52563H17.5" stroke="#141718" stroke-width="1.5" stroke-linecap="round"/>
</svg>
